<?xml version="1.0" standalone="no"?>
<!DOCTYPE svg PUBLIC "-//W3C//DTD SVG 20010904//EN"
 "http://www.w3.org/TR/2001/REC-SVG-20010904/DTD/svg10.dtd">
<svg version="1.0" xmlns="http://www.w3.org/2000/svg"
 width="192.000000pt" height="192.000000pt" viewBox="0 0 192.000000 192.000000"
 preserveAspectRatio="xMidYMid meet">

<g transform="translate(0.000000,192.000000) scale(0.100000,-0.100000)"
fill="#000000" stroke="none">
<path d="M326 1909 c-114 -27 -233 -129 -289 -246 l-32 -68 0 -635 0 -635 32
-68 c44 -93 119 -169 212 -215 l75 -37 636 0 636 0 75 37 c93 46 168 122 212
215 l32 68 0 636 0 635 -37 75 c-46 93 -122 168 -215 212 l-68 32 -615 2
c-351 1 -632 -3 -654 -8z m514 -759 l0 -150 35 0 c19 0 35 -4 35 -10 0 -6 -33
-10 -80 -10 -47 0 -80 4 -80 10 0 6 16 10 35 10 l35 0 0 140 c0 77 -2 140 -4
140 -2 0 -20 -7 -39 -15 -42 -17 -47 -18 -47 -6 0 10 66 39 93 40 15 1 17 -12
17 -149z m330 140 c0 -6 -28 -10 -65 -10 l-65 0 0 -50 0 -50 46 0 c95 0 139
-100 75 -172 -26 -30 -34 -32 -86 -32 -31 1 -61 6 -66 11 -7 7 10 10 51 9 56
-1 64 2 86 27 50 59 15 138 -63 139 -22 0 -46 -3 -52 -6 -8 -5 -11 16 -11 68
l0 76 75 0 c43 0 75 -4 75 -10z m-337 -504 c104 -43 127 -180 42 -255 -61 -53
-139 -53 -201 1 -128 112 2 320 159 254z"/>
</g>
</svg>
