<?xml version="1.0" encoding="UTF-8"?>
<svg version="1.1" xmlns="http://www.w3.org/2000/svg" width="1254" height="1254">
<path d="M0 0 C413.82 0 827.64 0 1254 0 C1254 413.82 1254 827.64 1254 1254 C840.18 1254 426.36 1254 0 1254 C0 840.18 0 426.36 0 0 Z " fill="#1E1D1D" transform="translate(0,0)"/>
<path d="M0 0 C1.60862376 -0.00418259 3.21724373 -0.010115 4.82585543 -0.01761746 C9.22254968 -0.03310166 13.61888956 -0.02392299 18.01557762 -0.01050565 C22.80788568 -0.00031722 27.60014132 -0.01341494 32.39244187 -0.02347898 C40.7838565 -0.03790086 49.17516812 -0.03750282 57.56658745 -0.02729034 C70.04512537 -0.01214516 82.52357658 -0.01990333 95.00211394 -0.03212357 C117.29077546 -0.05317863 139.5793911 -0.05136402 161.86805698 -0.03980792 C181.37453362 -0.02974404 200.88099345 -0.02711966 220.38747215 -0.0318985 C222.32865571 -0.03235681 222.32865571 -0.03235681 224.30905509 -0.03282438 C229.56239698 -0.03406974 234.81573885 -0.03534335 240.06908072 -0.03666343 C254.75374742 -0.0403095 269.43841412 -0.04261379 284.12308121 -0.04380798 C284.79174485 -0.04386257 285.46040849 -0.04391715 286.14933467 -0.04397339 C307.45049588 -0.04561009 328.75165128 -0.04110511 350.05281067 -0.03240967 C351.08887177 -0.03198817 351.08887177 -0.03198817 352.14586341 -0.03155816 C363.36186359 -0.0269786 374.57786364 -0.02210064 385.79386368 -0.01719747 C430.27028196 0.00222504 474.74665207 0.00132769 519.22307014 -0.01811981 C530.43108744 -0.02300477 541.63910476 -0.02784906 552.84712219 -0.03240967 C553.88236836 -0.03283236 553.88236836 -0.03283236 554.93852859 -0.03326359 C576.21607066 -0.04189156 597.49360873 -0.0455448 618.7711525 -0.04380798 C619.77344801 -0.04372648 619.77344801 -0.04372648 620.79599192 -0.04364333 C636.12386645 -0.04233718 651.45174046 -0.03952195 666.77961457 -0.03567076 C672.0239818 -0.0343879 677.26834905 -0.03313654 682.51271629 -0.0318985 C683.80400145 -0.03158219 685.0952866 -0.03126588 686.42570161 -0.03093999 C705.91767288 -0.02639184 725.40962548 -0.03170801 744.90159416 -0.04181671 C767.06841903 -0.05325534 789.23519085 -0.0503911 811.40200911 -0.02869374 C823.80499789 -0.01695359 836.20787179 -0.01617464 848.61085758 -0.03127843 C856.89951719 -0.04025798 865.18808484 -0.03464762 873.47673084 -0.01725936 C878.19668613 -0.0077601 882.91641348 -0.00445745 887.63636146 -0.01888329 C891.93895129 -0.03189906 896.24111306 -0.02618082 900.54367229 -0.00616065 C902.08203989 -0.00216592 903.62044378 -0.00470587 905.15878224 -0.0149844 C927.39387464 -0.15288556 946.18028764 6.10350655 962.58390999 21.50336456 C970.92707498 29.75792957 977.42097284 39.51783598 981.58390999 50.50336456 C982.03250374 51.6364505 982.03250374 51.6364505 982.49015999 52.79242706 C985.23302857 60.58928498 984.58390999 65.44756124 984.58390999 74.50336456 C633.46390999 74.50336456 282.34390999 74.50336456 -79.41609001 74.50336456 C-79.41609001 53.4441542 -72.86140477 37.89813663 -58.41609001 22.50336456 C-41.81903906 6.43168789 -22.88008427 -0.15236599 0 0 Z " fill="#FC4A4B" transform="translate(174.41609001159668,80.49663543701172)"/>
<path d="M0 0 C18.4661141 15.26725969 32.390068 37.03788756 35.8125 61.0625 C37.68293364 89.05054718 32.945376 115.77561883 14.5546875 137.76171875 C12.35938226 140.25097164 10.10854967 142.66625907 7.8125 145.0625 C7.22726562 145.69929687 6.64203125 146.33609375 6.0390625 146.9921875 C-5.22103705 158.88665886 -22.88702486 168.76370989 -39 171.6875 C-43.7269929 172.43704705 -43.7269929 172.43704705 -48.1875 174.0625 C-75.6649288 175.98668969 -102.17624178 171.46673297 -123.71484375 153.1640625 C-126.99364126 150.24899847 -130.10266669 147.1801958 -133.1875 144.0625 C-134.42113281 142.86173828 -134.42113281 142.86173828 -135.6796875 141.63671875 C-152.85195216 123.95938748 -160.69622173 98.1472847 -160.47314453 74.03466797 C-160.32113697 67.22025166 -159.82324706 60.69895952 -158.1875 54.0625 C-157.93097656 52.96164062 -157.67445313 51.86078125 -157.41015625 50.7265625 C-151.336288 27.10886019 -135.9290369 5.94643013 -115.1875 -6.9375 C-114.26453125 -7.53175781 -113.3415625 -8.12601563 -112.390625 -8.73828125 C-104.99482854 -13.30684864 -97.49912702 -16.42468253 -89.1875 -18.9375 C-88.15753906 -19.25847656 -87.12757813 -19.57945312 -86.06640625 -19.91015625 C-55.51084751 -27.95109276 -24.36712175 -18.93166363 0 0 Z " fill="#E7C145" transform="translate(569.1875,754.9375)"/>
<path d="M0 0 C9.41692421 8.22907511 16.3894749 16.46231508 22.5703125 27.24609375 C23.2096875 28.33535156 23.8490625 29.42460938 24.5078125 30.546875 C36.19242191 51.97705304 38.06156553 77.83824191 31.5703125 101.24609375 C26.32003327 118.8520301 17.69947703 133.44083223 4.5703125 146.24609375 C3.74660156 147.07882812 2.92289063 147.9115625 2.07421875 148.76953125 C-7.44236167 157.92670059 -19.15515907 163.65191311 -31.4296875 168.24609375 C-32.20828125 168.54257812 -32.986875 168.8390625 -33.7890625 169.14453125 C-43.48773545 172.61816943 -53.18198284 173.57512489 -63.4296875 173.49609375 C-64.43257812 173.50382813 -65.43546875 173.5115625 -66.46875 173.51953125 C-91.70352737 173.45432511 -115.43153722 161.81638069 -133.35546875 144.41015625 C-145.86439465 131.80485958 -153.6632881 116.18125524 -158.4296875 99.24609375 C-158.749375 98.14007812 -159.0690625 97.0340625 -159.3984375 95.89453125 C-165.38608641 72.22114158 -160.52439132 46.13166609 -148.140625 25.2734375 C-133.40661788 1.71030743 -112.2509885 -13.72860259 -85.4296875 -20.75390625 C-84.53378906 -21.00011719 -83.63789062 -21.24632812 -82.71484375 -21.5 C-53.73949266 -28.13732371 -22.47105416 -18.63195557 0 0 Z " fill="#40649A" transform="translate(816.4296875,755.75390625)"/>
<path d="M0 0 C0.33 0 0.66 0 1 0 C1.05945801 0.84256348 1.11891602 1.68512695 1.18017578 2.55322266 C5.70137508 64.12646169 25.04045838 121.26019202 62 171 C62.60279785 171.81331787 62.60279785 171.81331787 63.21777344 172.64306641 C76.92535902 191.03950782 92.3048331 208.85574235 110.44921875 223.0078125 C113.27288401 225.21312534 115.97044014 227.53985619 118.6875 229.875 C125.20981051 235.3215528 132.1256429 240.10243006 139.19873047 244.80273438 C140.70234088 245.8021523 142.19790083 246.81366849 143.69140625 247.828125 C164.2247813 261.4071788 186.87757903 272.44267102 210.25415039 280.09057617 C212.30873006 280.77105179 214.35634152 281.47263053 216.40014648 282.18481445 C224.72747893 285.05490127 232.9932788 287.37030007 241.60717773 289.25805664 C243.56798261 289.68870413 245.5251879 290.13351172 247.48242188 290.58007812 C262.78139542 293.99263112 277.76288314 295.42188077 293.375 296.125 C295.19013309 296.21163578 297.00523764 296.29887148 298.8203125 296.38671875 C303.21324421 296.59804688 307.60647925 296.8013109 312 297 C312 297.33 312 297.66 312 298 C209.04 298 106.08 298 0 298 C0 199.66 0 101.32 0 0 Z " fill="#000000" transform="translate(0,956)"/>
<path d="M0 0 C102.96 0 205.92 0 312 0 C312 0.33 312 0.66 312 1 C310.43378906 1.04374756 310.43378906 1.04374756 308.8359375 1.08837891 C278.64821996 1.99293358 250.18858797 5.16553946 221.25048828 14.29296875 C219.03639517 14.9885658 216.81530378 15.65428641 214.58984375 16.3125 C206.50261687 18.72837183 198.72864074 21.59745376 191 25 C189.7675858 25.51979374 188.53447355 26.03793456 187.30078125 26.5546875 C156.22286515 39.6821288 127.17932465 58.77559042 102.453125 81.73046875 C100.29757629 83.72469454 98.10513865 85.65283403 95.875 87.5625 C88.66142203 93.86519847 82.28161356 100.66200221 76.30078125 108.140625 C74.00295027 110.99633345 71.63180501 113.77667313 69.25 116.5625 C54.86106304 133.85153278 42.60652646 152.69651177 32.95166016 173.01123047 C31.99098121 175.01884738 31.00375016 177.01162085 30.01171875 179.00390625 C21.28164843 196.74169662 15.35067491 215.16372416 10.67285156 234.33789062 C9.98794156 237.04770873 9.2307595 239.73003799 8.46484375 242.41796875 C6.85758274 248.26118869 5.82727273 254.14472724 4.875 260.125 C4.62169922 261.65447266 4.62169922 261.65447266 4.36328125 263.21484375 C2.62691018 273.86549777 1.78740843 284.2727007 1.4375 295.0625 C1.39431641 296.30966797 1.35113281 297.55683594 1.30664062 298.84179688 C1.20137704 301.89444091 1.09924059 304.94715523 1 308 C0.67 308 0.34 308 0 308 C0 206.36 0 104.72 0 0 Z " fill="#000000" transform="translate(0,0)"/>
<path d="M0 0 C0.33 0 0.66 0 1 0 C1 98.34 1 196.68 1 298 C-101.96 298 -204.92 298 -311 298 C-311 297.67 -311 297.34 -311 297 C-309.87863647 296.97812622 -309.87863647 296.97812622 -308.73461914 296.95581055 C-283.15084635 296.40333381 -258.86553276 293.99667229 -233.98364258 287.74731445 C-231.97353048 287.24384067 -229.96020878 286.75303193 -227.9440918 286.27416992 C-221.27285531 284.6725384 -214.86593923 282.70467008 -208.4375 280.3125 C-207.49277832 279.96364746 -206.54805664 279.61479492 -205.57470703 279.25537109 C-177.23516572 268.68204918 -150.06356822 255.53043293 -126 237 C-124.9584375 236.22269531 -123.916875 235.44539063 -122.84375 234.64453125 C-116.41946065 229.82419261 -110.3617335 224.76293862 -104.47265625 219.2890625 C-102.39532394 217.36597129 -100.28375015 215.51725482 -98.125 213.6875 C-89.404826 206.07749189 -81.32637349 197.78417531 -74.15234375 188.703125 C-72.72528135 186.91087966 -71.25882659 185.14926182 -69.75390625 183.421875 C-56.96488715 168.72185304 -46.47974788 151.98152223 -37 135 C-36.6488916 134.38141113 -36.2977832 133.76282227 -35.93603516 133.12548828 C-21.32950475 107.31582437 -12.47987105 78.80621922 -6 50 C-5.77715332 49.01555908 -5.77715332 49.01555908 -5.54980469 48.01123047 C-3.28614335 37.95761044 -1.92055386 28.28020552 -1.5 18 C-1.2522745 11.94448777 -0.83405661 6.00520761 0 0 Z " fill="#000000" transform="translate(1253,956)"/>
<path d="M0 0 C101.31 0 202.62 0 307 0 C307 100.65 307 201.3 307 305 C306.67 305 306.34 305 306 305 C305.98018066 304.26587891 305.96036133 303.53175781 305.93994141 302.77539062 C305.45529522 282.30229737 305.45529522 282.30229737 303 262 C302.76821045 260.668479 302.76821045 260.668479 302.53173828 259.31005859 C299.18782958 240.59221257 294.99752929 221.72722238 288 204 C287.72833008 203.28980713 287.45666016 202.57961426 287.17675781 201.84790039 C273.45701676 166.03999356 254.675896 133.58786519 229 105 C228.27852783 104.19393311 228.27852783 104.19393311 227.54248047 103.37158203 C219.48150356 94.39476976 211.18730173 85.83256402 202 78 C201.05382813 77.17628906 200.10765625 76.35257812 199.1328125 75.50390625 C176.60715098 56.0079093 151.43031907 40.47165247 124.37963867 28.09350586 C122.72869637 27.33485493 121.08335286 26.56394724 119.44262695 25.78344727 C112.38919866 22.47257608 105.21285964 19.86360596 97.8125 17.4375 C96.61850586 17.04401367 95.42451172 16.65052734 94.19433594 16.24511719 C86.19717109 13.64164158 78.24811849 11.26706821 70.02685547 9.47119141 C67.83333438 8.96125456 65.67363998 8.36465043 63.50390625 7.76171875 C42.83154639 2.33640261 21.24344025 2.10589838 0 1 C0 0.67 0 0.34 0 0 Z " fill="#000000" transform="translate(947,0)"/>
<path d="M0 0 C39.6 0 79.2 0 120 0 C120 7.59 120 15.18 120 23 C87.66 23 55.32 23 22 23 C21.67 26.96 21.34 30.92 21 35 C20.6964922 38.12115691 20.38631394 41.24040109 20.0625 44.359375 C19.8879031 46.07030049 19.71342776 47.78123839 19.5390625 49.4921875 C19.27055981 52.11570285 19.0011275 54.73911174 18.72949219 57.36230469 C17.57145328 68.56791029 16.59898553 79.74931776 16 91 C16.95084473 90.17097168 16.95084473 90.17097168 17.92089844 89.32519531 C34.95666677 74.66753509 54.42904747 73.5938242 76 75 C80.64995438 75.60081396 84.74276143 77.04852366 89 79 C90.14082031 79.474375 91.28164063 79.94875 92.45703125 80.4375 C107.96489105 87.42695794 120.62768477 100.10228622 127 116 C133.99552513 137.31633077 134.92270819 161.14934887 125.05834961 181.83789062 C116.61847606 198.11833502 103.1361101 211.04902748 85.6875 217.16015625 C75.54251918 220.3765763 66.48579974 221.20721452 55.875 221.25 C53.99167969 221.2809375 53.99167969 221.2809375 52.0703125 221.3125 C33.73717271 221.38857112 15.98645421 215.31140326 2.45703125 202.61328125 C-7.55062773 191.93509236 -13.18579292 180.51365661 -15 166 C-6.42 166 2.16 166 11 166 C12.32 169.63 13.64 173.26 15 177 C20.77955905 186.06339941 28.00608209 191.22223034 38 195 C38.85980469 195.35964844 39.71960938 195.71929688 40.60546875 196.08984375 C45.32384733 197.35495561 49.82252305 197.34121161 54.6875 197.3125 C55.67339111 197.30686035 56.65928223 197.3012207 57.67504883 197.29541016 C70.51795212 197.08070632 82.18436574 193.72215149 91.8125 184.75 C104.26771045 171.18965098 105.81121246 155.09520443 105.17919922 137.49316406 C104.3854963 126.45052893 98.63645729 117.20527532 90.75 109.75 C77.96020045 98.95927836 63.77896297 98.01836391 47.70458984 98.75732422 C41.91144707 99.27712779 37.07926049 101.16488995 32 104 C31.17628906 104.45761719 30.35257813 104.91523438 29.50390625 105.38671875 C23.50961974 109.07628802 17.41610246 114.02821065 13.72485352 120.09619141 C12 122 12 122 9.5480957 122.45410156 C8.60023193 122.4331543 7.65236816 122.41220703 6.67578125 122.390625 C5.64775391 122.37773438 4.61972656 122.36484375 3.56054688 122.3515625 C2.48869141 122.31804687 1.41683594 122.28453125 0.3125 122.25 C-0.77095703 122.23195313 -1.85441406 122.21390625 -2.97070312 122.1953125 C-5.64802146 122.14813508 -8.32356909 122.08232249 -11 122 C-10.80743192 105.21156458 -9.28996998 88.62714167 -7.5625 71.9375 C-7.39858261 70.34846359 -7.39858261 70.34846359 -7.23135376 68.72732544 C-6.21474813 58.92480905 -5.17319551 49.1291021 -3.90625 39.35546875 C-3.01154353 32.37332924 -2.41985427 25.39640048 -1.9375 18.375 C-1.78247958 16.15346772 -1.62501134 13.93210461 -1.46484375 11.7109375 C-1.399021 10.75493652 -1.33319824 9.79893555 -1.26538086 8.81396484 C-0.98669924 5.85896543 -0.4879545 2.927727 0 0 Z " fill="#E3E2E2" transform="translate(658,398)"/>
<path d="M0 0 C0 65.01 0 130.02 0 197 C17.82 197 35.64 197 54 197 C54 204.26 54 211.52 54 219 C8.13 219 -37.74 219 -85 219 C-85 211.74 -85 204.48 -85 197 C-65.2 197 -45.4 197 -25 197 C-25 141.23 -25 85.46 -25 28 C-35.23 31.3 -45.46 34.6 -56 38 C-71.19148936 42.86524823 -71.19148936 42.86524823 -78 44 C-78 37.07 -78 30.14 -78 23 C-69.00020184 18.50010092 -69.00020184 18.50010092 -65.13208008 17.01708984 C-63.83582451 16.51669693 -63.83582451 16.51669693 -62.51338196 16.00619507 C-61.60791122 15.66126007 -60.70244049 15.31632507 -59.76953125 14.9609375 C-58.81608322 14.59400787 -57.86263519 14.22707825 -56.8802948 13.84902954 C-53.85912573 12.68725683 -50.83588468 11.53099293 -47.8125 10.375 C-45.77134023 9.59152126 -43.73032319 8.80767056 -41.68945312 8.0234375 C-38.81674243 6.91957611 -35.94384275 5.81624442 -33.06977844 4.71591187 C-32.21506454 4.38862091 -31.36035065 4.06132996 -30.47973633 3.72412109 C-29.73331375 3.43862396 -28.98689117 3.15312683 -28.21784973 2.85897827 C-16.7414815 -1.58584538 -17.7912596 0 0 0 Z " fill="#E5E4E4" transform="translate(556,398)"/>
<path d="M0 0 C0.95310059 0.01047363 1.90620117 0.02094727 2.88818359 0.03173828 C4.43505859 0.04140625 4.43505859 0.04140625 6.01318359 0.05126953 C7.63353516 0.07640625 7.63353516 0.07640625 9.28662109 0.10205078 C10.37458984 0.11107422 11.46255859 0.12009766 12.58349609 0.12939453 C15.27642261 0.15301669 17.96891365 0.18595522 20.66162109 0.22705078 C20.66162109 0.55705078 20.66162109 0.88705078 20.66162109 1.22705078 C18.02162109 1.22705078 15.38162109 1.22705078 12.66162109 1.22705078 C12.66162109 1.88705078 12.66162109 2.54705078 12.66162109 3.22705078 C7.05162109 2.89705078 1.44162109 2.56705078 -4.33837891 2.22705078 C-2.33837891 0.22705078 -2.33837891 0.22705078 0 0 Z " fill="#333333" transform="translate(705.33837890625,495.77294921875)"/>
<path d="M0 0 C0.66 0 1.32 0 2 0 C2 6.27 2 12.54 2 19 C2.99 19.33 3.98 19.66 5 20 C3.35 20.33 1.7 20.66 0 21 C0 14.07 0 7.14 0 0 Z " fill="#DFDEDE" transform="translate(478,421)"/>
<path d="M0 0 C0.33 0.99 0.66 1.98 1 3 C0.24074219 3.61488281 -0.51851563 4.22976563 -1.30078125 4.86328125 C-2.29464844 5.67152344 -3.28851563 6.47976563 -4.3125 7.3125 C-5.29863281 8.11300781 -6.28476562 8.91351562 -7.30078125 9.73828125 C-9.31602166 11.42688356 -11.19488009 13.09630699 -13 15 C-13.66 14.67 -14.32 14.34 -15 14 C-13.06555623 12.03856399 -11.12763179 10.08079606 -9.1875 8.125 C-8.64029297 7.56941406 -8.09308594 7.01382813 -7.52929688 6.44140625 C-6.99755859 5.90644531 -6.46582031 5.37148438 -5.91796875 4.8203125 C-5.18743286 4.08192139 -5.18743286 4.08192139 -4.44213867 3.32861328 C-3 2 -3 2 0 0 Z " fill="#D8BA4F" transform="translate(447,753)"/>
<path d="M0 0 C0.66 0.99 1.32 1.98 2 3 C-1.18683431 7.33409466 -4.86378916 10.6189962 -9 14 C-9.66 13.67 -10.32 13.34 -11 13 C-10.31164062 12.34644531 -10.31164062 12.34644531 -9.609375 11.6796875 C-5.83645414 8.0177349 -2.7376848 4.48980308 0 0 Z " fill="#353536" transform="translate(777,588)"/>
<path d="M0 0 C0.66 0.99 1.32 1.98 2 3 C1.01 3.33 0.02 3.66 -1 4 C-0.938125 4.763125 -0.87625 5.52625 -0.8125 6.3125 C-1 9 -1 9 -2.375 10.8125 C-4 12 -4 12 -6 12 C-4.68139111 7.38486888 -2.78644563 3.90102388 0 0 Z " fill="#D8494C" transform="translate(107,114)"/>
<path d="M0 0 C0.66 0.66 1.32 1.32 2 2 C-0.31 4.31 -2.62 6.62 -5 9 C-5.66 8.34 -6.32 7.68 -7 7 C-4.69 4.69 -2.38 2.38 0 0 Z " fill="#242425" transform="translate(681,507)"/>
<path d="M0 0 C0.66 0.33 1.32 0.66 2 1 C0.01219635 3.98170547 -1.56237816 5.81831749 -5 7 C-5.99 6.67 -6.98 6.34 -8 6 C-5.36 4.02 -2.72 2.04 0 0 Z " fill="#322817" transform="translate(568,907)"/>
<path d="M0 0 C0.99 0.33 1.98 0.66 3 1 C1.71034824 2.37562854 0.37310707 3.70766393 -1 5 C-1.66 5 -2.32 5 -3 5 C-3 5.66 -3 6.32 -3 7 C-3.66 6.67 -4.32 6.34 -5 6 C-3.35 4.02 -1.7 2.04 0 0 Z " fill="#425C86" transform="translate(683,762)"/>
<path d="M0 0 C2.64 0.66 5.28 1.32 8 2 C7.34 2.66 6.68 3.32 6 4 C2.875 3.625 2.875 3.625 0 3 C0 2.01 0 1.02 0 0 Z " fill="#D4D3D2" transform="translate(692,592)"/>
</svg>
